<?xml version="1.0" encoding="UTF-8"?>
<svg version="1.1" xmlns="http://www.w3.org/2000/svg" width="1200" height="1200">
<path d="M0 0 C0.93476437 -0.00623996 1.86952874 -0.01247993 2.83261931 -0.01890898 C5.9548035 -0.03482264 9.07620523 -0.02224074 12.19839478 -0.00964355 C14.44095819 -0.01506545 16.68351805 -0.02218849 18.92607117 -0.03088379 C25.01086652 -0.04911392 31.09539048 -0.04205014 37.18019056 -0.02936745 C43.5514699 -0.01923579 49.92272609 -0.02863383 56.29400635 -0.03491211 C67.6808119 -0.04265513 79.06747979 -0.03022677 90.4542578 -0.00987476 C100.76665498 0.00798689 111.07887197 0.0048984 121.39126587 -0.0135498 C133.37900646 -0.0349852 145.36663768 -0.04290771 157.35440409 -0.03110075 C163.69550502 -0.02487094 170.036482 -0.02401602 176.37757492 -0.0372467 C182.34157823 -0.04882123 188.30524217 -0.04074969 194.26920891 -0.01766968 C196.45528157 -0.01239074 198.6413829 -0.01388234 200.82744408 -0.02272034 C203.81739286 -0.03369165 206.80626211 -0.01989237 209.79614258 0 C210.65617933 -0.00892289 211.51621608 -0.01784577 212.40231454 -0.02703905 C221.35892484 0.08811723 228.04331145 3.48917276 234.52505493 9.50793457 C235.39130493 10.18855957 235.39130493 10.18855957 236.27505493 10.88293457 C238.23934547 13.43651227 238.68609848 16.43176091 239.52505493 19.50793457 C240.18505493 20.16793457 240.84505493 20.82793457 241.52505493 21.50793457 C242.24000351 23.41932771 242.9518402 25.33199222 243.64175415 27.25256348 C245.13579342 31.06736025 247.12182734 34.60709987 249.08755493 38.19543457 C255.52505493 50.02005089 255.52505493 50.02005089 255.52505493 54.50793457 C256.18505493 54.50793457 256.84505493 54.50793457 257.52505493 54.50793457 C257.83958618 55.28137207 258.15411743 56.05480957 258.47817993 56.85168457 C260.45891079 61.67225846 262.42640839 66.44690985 264.83755493 71.07043457 C266.52505493 74.50793457 266.52505493 74.50793457 266.52505493 77.50793457 C267.18505493 77.50793457 267.84505493 77.50793457 268.52505493 77.50793457 C269.20033716 79.08761264 269.86495187 80.6718536 270.52505493 82.25793457 C270.89630493 83.13965332 271.26755493 84.02137207 271.65005493 84.92980957 C272.52505493 87.50793457 272.52505493 87.50793457 272.52505493 91.50793457 C273.18505493 91.50793457 273.84505493 91.50793457 274.52505493 91.50793457 C274.52505493 92.49793457 274.52505493 93.48793457 274.52505493 94.50793457 C275.18505493 94.50793457 275.84505493 94.50793457 276.52505493 94.50793457 C277.34338215 96.40125991 278.15447761 98.2977119 278.96255493 100.19543457 C279.41501587 101.25117676 279.86747681 102.30691895 280.33364868 103.39465332 C281.37952948 106.12765986 282.06026241 108.62835794 282.52505493 111.50793457 C283.18505493 111.50793457 283.84505493 111.50793457 284.52505493 111.50793457 C285.24821899 113.18822754 285.24821899 113.18822754 285.98599243 114.90246582 C286.62385963 116.37518862 287.26188894 117.84784122 287.90005493 119.32043457 C288.21716431 120.05842285 288.53427368 120.79641113 288.86099243 121.5567627 C289.32505493 122.62507324 289.32505493 122.62507324 289.79849243 123.71496582 C290.08128052 124.36956787 290.3640686 125.02416992 290.65542603 125.6986084 C291.59978406 127.77116256 291.59978406 127.77116256 293.52505493 130.50793457 C293.52505493 131.49793457 293.52505493 132.48793457 293.52505493 133.50793457 C294.18505493 133.50793457 294.84505493 133.50793457 295.52505493 133.50793457 C295.79060181 134.27879395 296.05614868 135.04965332 296.32974243 135.84387207 C296.85954712 137.34820801 296.85954712 137.34820801 297.40005493 138.88293457 C297.74810181 139.88066895 298.09614868 140.87840332 298.45474243 141.90637207 C299.37287995 144.61235575 299.37287995 144.61235575 301.52505493 146.50793457 C302.24460292 148.42950204 302.96107018 150.35233616 303.65493774 152.2833252 C305.08682485 155.94419929 307.00387795 159.32113862 308.90005493 162.75793457 C312.07828708 168.62932382 314.88765602 174.49466792 317.36099243 180.70324707 C318.99261124 184.63446286 320.9267008 188.38851282 322.85708618 192.17980957 C324.80857902 196.07365477 326.67457444 200.00282106 328.52505493 203.94543457 C328.86625366 204.67230469 329.20745239 205.3991748 329.55899048 206.14807129 C331.61030342 210.5293735 333.63547111 214.92210236 335.65005493 219.32043457 C338.84590625 226.26793744 342.20770692 233.13787398 345.79067993 239.89465332 C347.65505608 243.44615858 348.52505493 245.41027387 348.52505493 249.50793457 C349.18505493 249.50793457 349.84505493 249.50793457 350.52505493 249.50793457 C351.08773071 250.74156738 351.08773071 250.74156738 351.66177368 252.00012207 C354.52175256 258.23876617 357.43630645 264.41539814 360.64224243 270.48449707 C361.52505493 272.50793457 361.52505493 272.50793457 361.52505493 275.50793457 C362.18505493 275.50793457 362.84505493 275.50793457 363.52505493 275.50793457 C364.17474243 277.33324707 364.17474243 277.33324707 364.83755493 279.19543457 C365.79921868 281.79192669 366.7530801 283.87953115 368.21255493 286.25793457 C369.52505493 288.50793457 369.52505493 288.50793457 369.52505493 292.50793457 C370.18505493 292.50793457 370.84505493 292.50793457 371.52505493 292.50793457 C371.76739868 293.14859863 372.00974243 293.7892627 372.25942993 294.44934082 C374.55633548 300.38889499 374.55633548 300.38889499 377.52505493 306.00793457 C379.13400273 308.67704178 380.2915823 311.34475856 381.40005493 314.25793457 C383.25367913 319.07149624 385.62059633 323.46225308 388.13052368 327.96105957 C390.63824977 332.5409963 392.52505493 336.17656956 392.52505493 341.50793457 C393.18505493 341.50793457 393.84505493 341.50793457 394.52505493 341.50793457 C395.19810511 343.10943343 395.8632772 344.71424486 396.52505493 346.32043457 C396.89630493 347.21375488 397.26755493 348.1070752 397.65005493 349.02746582 C398.52505493 351.50793457 398.52505493 351.50793457 398.52505493 354.50793457 C399.18505493 354.50793457 399.84505493 354.50793457 400.52505493 354.50793457 C400.52505493 355.82793457 400.52505493 357.14793457 400.52505493 358.50793457 C401.18505493 358.50793457 401.84505493 358.50793457 402.52505493 358.50793457 C403.5344203 360.58674657 404.53223339 362.67117077 405.52505493 364.75793457 C406.36036743 366.49816895 406.36036743 366.49816895 407.21255493 368.27355957 C408.52505493 371.50793457 408.52505493 371.50793457 408.52505493 375.50793457 C409.18505493 375.50793457 409.84505493 375.50793457 410.52505493 375.50793457 C411.03552368 376.61975098 411.03552368 376.61975098 411.55630493 377.75402832 C414.50475547 384.16063494 417.46984031 390.55938291 420.46255493 396.94543457 C420.79859741 397.66271729 421.13463989 398.38 421.48086548 399.11901855 C423.398893 403.18949409 425.3780909 407.22020754 427.42666626 411.22644043 C429.98767327 416.23519629 432.28789722 421.10653995 433.91177368 426.49621582 C434.54306981 428.56702796 435.29649008 430.55575217 436.08755493 432.57043457 C440.10496188 443.25547504 440.60391921 453.82638725 440.65005493 465.13293457 C440.65472778 465.92031006 440.65940063 466.70768555 440.66421509 467.5189209 C440.6271499 481.18599793 437.45482884 492.19321239 429.52505493 503.50793457 C429.06228149 504.18598145 428.59950806 504.86402832 428.12271118 505.56262207 C424.84155771 510.17538424 421.2372923 514.30166997 416.52505493 517.50793457 C415.86505493 517.50793457 415.20505493 517.50793457 414.52505493 517.50793457 C414.52505493 518.16793457 414.52505493 518.82793457 414.52505493 519.50793457 C412.61880493 520.87512207 412.61880493 520.87512207 410.02505493 522.38293457 C409.11884399 522.91016113 408.21263306 523.4373877 407.27896118 523.98059082 C403.74605502 525.93997566 400.15110945 527.72787144 396.52505493 529.50793457 C396.19505493 529.83793457 395.86505493 530.16793457 395.52505493 530.50793457 C393.85888378 530.54857289 392.19117398 530.55065557 390.52505493 530.50793457 C390.52505493 531.16793457 390.52505493 531.82793457 390.52505493 532.50793457 C378.03986131 535.95212591 378.03986131 535.95212591 371.52505493 535.50793457 C371.52505493 536.16793457 371.52505493 536.82793457 371.52505493 537.50793457 C370.60982056 537.64070801 369.69458618 537.77348145 368.75161743 537.91027832 C367.56310181 538.08687988 366.37458618 538.26348145 365.15005493 538.44543457 C363.96669556 538.61945801 362.78333618 538.79348145 361.56411743 538.97277832 C358.61803113 539.34256243 358.61803113 539.34256243 356.52505493 540.50793457 C352.07305171 540.83292834 347.61244526 540.83243427 343.15005493 540.88293457 C341.90482056 540.92031738 340.65958618 540.9577002 339.37661743 540.99621582 C338.18036743 541.00781738 336.98411743 541.01941895 335.75161743 541.03137207 C334.65414185 541.05119141 333.55666626 541.07101074 332.42593384 541.09143066 C329.52505493 540.50793457 329.52505493 540.50793457 327.13589478 538.10021973 C325.52505493 535.50793457 325.52505493 535.50793457 325.52505493 533.50793457 C324.86505493 533.50793457 324.20505493 533.50793457 323.52505493 533.50793457 C321.97696808 531.15890702 320.54658538 528.82001712 319.15005493 526.38293457 C316.40267689 521.65744435 313.59863236 517.03309887 310.52505493 512.50793457 C309.73421509 511.29557129 309.73421509 511.29557129 308.92739868 510.05871582 C308.44400024 509.32008301 307.96060181 508.5814502 307.46255493 507.82043457 C306.97657837 507.07406738 306.49060181 506.3277002 305.98989868 505.55871582 C304.5975393 503.48225101 304.5975393 503.48225101 302.84146118 501.86340332 C301.52505493 500.50793457 301.52505493 500.50793457 301.52505493 498.50793457 C300.86505493 498.50793457 300.20505493 498.50793457 299.52505493 498.50793457 C298.18521118 497.07434082 298.18521118 497.07434082 296.58755493 495.07043457 C286.35462173 483.1320125 272.78744775 474.62750339 257.75552368 470.19934082 C255.52505493 469.50793457 255.52505493 469.50793457 254.52505493 468.50793457 C247.26356842 467.25626025 240.00166455 467.32430792 232.65005493 467.32043457 C231.43446899 467.30818848 230.21888306 467.29594238 228.96646118 467.2833252 C218.09046548 467.2657265 208.68354244 469.28835768 198.33755493 472.44543457 C197.48741821 472.69744629 196.63728149 472.94945801 195.76138306 473.20910645 C190.85447988 474.69065018 186.23209448 476.46535818 181.52505493 478.50793457 C178.64746385 479.5233314 175.74301895 480.45081149 172.83755493 481.38293457 C166.58211249 483.42593004 160.50721407 485.66788429 154.46646118 488.28918457 C151.0902206 489.68810497 147.66717956 490.87893417 144.21255493 492.07043457 C139.23602075 493.81495589 135.00628272 495.76432572 130.52505493 498.50793457 C128.20080173 499.55612719 125.88230544 500.54220811 123.52505493 501.50793457 C122.53376587 501.93590332 121.54247681 502.36387207 120.52114868 502.80480957 C119.44993774 503.26371582 118.37872681 503.72262207 117.27505493 504.19543457 C116.25927368 504.63242676 115.24349243 505.06941895 114.19692993 505.51965332 C111.52505493 506.50793457 111.52505493 506.50793457 108.52505493 506.50793457 C108.19505493 507.16793457 107.86505493 507.82793457 107.52505493 508.50793457 C105.34536743 509.57824707 105.34536743 509.57824707 102.65005493 510.63293457 C101.76575806 510.9861377 100.88146118 511.33934082 99.97036743 511.70324707 C97.52505493 512.50793457 97.52505493 512.50793457 94.52505493 512.50793457 C94.52505493 513.16793457 94.52505493 513.82793457 94.52505493 514.50793457 C93.69103149 514.75027832 92.85700806 514.99262207 91.99771118 515.24230957 C86.03312386 517.01870442 80.35207553 518.91386756 74.72427368 521.56652832 C71.4679551 522.96044089 68.10461993 523.87535354 64.68911743 524.79699707 C62.27002907 525.48490151 62.27002907 525.48490151 59.52505493 527.50793457 C56.75523518 528.23668468 54.00840077 528.89983216 51.21255493 529.50793457 C45.1894881 530.83830999 39.4457118 532.42856138 33.65005493 534.57043457 C31.12912137 535.32671464 29.04692013 535.7315578 26.46255493 536.00793457 C22.70866629 536.30533113 22.70866629 536.30533113 20.15005493 537.50793457 C16.70528695 538.82022713 13.39145462 538.99301165 9.73208618 539.26184082 C7.48571612 539.38371198 7.48571612 539.38371198 5.52505493 540.50793457 C3.40317089 540.73285687 1.27520861 540.90136668 -0.85385132 541.04309082 C-2.15862427 541.1304248 -3.46339722 541.21775879 -4.80770874 541.30773926 C-6.21756745 541.39616002 -7.62748118 541.48370721 -9.03744507 541.57043457 C-10.1037767 541.63672058 -10.1037767 541.63672058 -11.19165039 541.7043457 C-29.25065732 542.81397308 -46.79946299 542.38797518 -64.84994507 541.04309082 C-65.90955444 540.96453857 -66.96916382 540.88598633 -68.06088257 540.80505371 C-70.47494507 540.50793457 -70.47494507 540.50793457 -71.47494507 539.50793457 C-73.17744127 539.1839301 -74.88742404 538.89891195 -76.59994507 538.63293457 C-80.49170017 537.95025794 -83.86038743 537.12935139 -87.43978882 535.39465332 C-89.59256173 534.41302918 -89.59256173 534.41302918 -92.41635132 533.58996582 C-106.68427571 529.09370296 -122.45877232 519.81453449 -132.47494507 508.50793457 C-132.47494507 507.84793457 -132.47494507 507.18793457 -132.47494507 506.50793457 C-133.13494507 506.50793457 -133.79494507 506.50793457 -134.47494507 506.50793457 C-139.47494507 501.03174409 -139.47494507 501.03174409 -139.47494507 498.50793457 C-140.13494507 498.50793457 -140.79494507 498.50793457 -141.47494507 498.50793457 C-142.13494507 496.85793457 -142.79494507 495.20793457 -143.47494507 493.50793457 C-144.13494507 493.50793457 -144.79494507 493.50793457 -145.47494507 493.50793457 C-149.47494507 486.75793457 -149.47494507 486.75793457 -149.47494507 484.50793457 C-150.13494507 484.50793457 -150.79494507 484.50793457 -151.47494507 484.50793457 C-151.88486694 483.6648877 -152.29478882 482.82184082 -152.71713257 481.95324707 C-153.25596069 480.85754395 -153.79478882 479.76184082 -154.34994507 478.63293457 C-154.88361694 477.5423877 -155.41728882 476.45184082 -155.96713257 475.32824707 C-157.32030444 472.4691091 -157.32030444 472.4691091 -159.47494507 470.50793457 C-160.32650757 468.66809082 -160.32650757 468.66809082 -161.09994507 466.57043457 C-161.36033569 465.88078613 -161.62072632 465.1911377 -161.88900757 464.48059082 C-162.47494507 462.50793457 -162.47494507 462.50793457 -162.47494507 459.50793457 C-163.13494507 459.50793457 -163.79494507 459.50793457 -164.47494507 459.50793457 C-164.74049194 458.48312988 -165.00603882 457.4583252 -165.27963257 456.40246582 C-165.63623535 455.04174468 -165.99301558 453.68107004 -166.34994507 452.32043457 C-166.61098022 451.31013184 -166.61098022 451.31013184 -166.87728882 450.27941895 C-167.64797467 447.35366709 -168.46462535 444.53344721 -169.59994507 441.72668457 C-170.71161942 438.90779603 -170.61451701 436.50873128 -170.47494507 433.50793457 C-171.13494507 433.50793457 -171.79494507 433.50793457 -172.47494507 433.50793457 C-174.19201124 424.18700666 -174.77030575 415.19752193 -174.74057007 405.73059082 C-174.74192315 404.34781324 -174.74386897 402.96503612 -174.74636841 401.58226013 C-174.74929051 398.70563154 -174.74511796 395.82912846 -174.73568726 392.95251465 C-174.7243053 389.3075435 -174.7308629 385.66286748 -174.74283218 382.01790714 C-174.75013971 379.16847097 -174.74772245 376.31910208 -174.7425766 373.46966362 C-174.74063641 371.48592304 -174.74659742 369.50217959 -174.75283813 367.51844788 C-174.69791606 356.73051607 -173.85076537 345.97645371 -170.59994507 335.63293457 C-169.05324207 330.5345432 -167.70837732 325.43737691 -166.47494507 320.25793457 C-165.17731948 314.89083229 -163.61765134 309.78503901 -161.40463257 304.71887207 C-160.40468146 302.42322603 -160.40468146 302.42322603 -159.52963257 299.63684082 C-158.42414033 296.35721385 -157.11376265 293.2400747 -155.72494507 290.07043457 C-151.35243019 280.00048258 -147.26064402 269.81344838 -143.47494507 259.50793457 C-142.81494507 259.50793457 -142.15494507 259.50793457 -141.47494507 259.50793457 C-141.47494507 257.85793457 -141.47494507 256.20793457 -141.47494507 254.50793457 C-140.81494507 254.50793457 -140.15494507 254.50793457 -139.47494507 254.50793457 C-139.39244507 253.31168457 -139.30994507 252.11543457 -139.22494507 250.88293457 C-138.92664721 246.55761567 -136.87529252 244.0450586 -134.47494507 240.50793457 C-133.4005147 238.21984447 -132.38009218 235.90568959 -131.41244507 233.57043457 C-130.92646851 232.40641113 -130.44049194 231.2423877 -129.93978882 230.04309082 C-129.45639038 228.87648926 -128.97299194 227.7098877 -128.47494507 226.50793457 C-127.48111741 224.17189789 -126.47856629 221.8397904 -125.47494507 219.50793457 C-124.81494507 219.50793457 -124.15494507 219.50793457 -123.47494507 219.50793457 C-123.39244507 218.68293457 -123.30994507 217.85793457 -123.22494507 217.00793457 C-122.44395746 213.36332573 -121.18333766 210.67991806 -119.41244507 207.43762207 C-118.45862268 205.47433766 -117.9291742 203.63713361 -117.47494507 201.50793457 C-116.81494507 201.50793457 -116.15494507 201.50793457 -115.47494507 201.50793457 C-115.36021851 200.78605957 -115.24549194 200.06418457 -115.12728882 199.32043457 C-114.4490232 196.39617563 -113.4328804 194.15801948 -112.03744507 191.50793457 C-110.77305055 189.09237488 -109.56599634 186.74394906 -108.58432007 184.19934082 C-107.04523588 180.46543587 -105.09112846 176.99012746 -103.16244507 173.44543457 C-99.49433671 166.61906508 -96.27200841 159.74210642 -93.47494507 152.50793457 C-92.80946961 150.84079191 -92.14316135 149.17398055 -91.47494507 147.50793457 C-90.81494507 147.50793457 -90.15494507 147.50793457 -89.47494507 147.50793457 C-89.38986694 146.84535645 -89.30478882 146.18277832 -89.21713257 145.50012207 C-88.23739607 141.55023703 -86.47466456 138.22782679 -84.59994507 134.63293457 C-82.03038548 129.6538246 -79.63905692 124.67740056 -77.47494507 119.50793457 C-76.8220588 118.1677996 -76.16268912 116.83051929 -75.47494507 115.50793457 C-74.81494507 115.50793457 -74.15494507 115.50793457 -73.47494507 115.50793457 C-73.35506226 114.80023926 -73.23517944 114.09254395 -73.11166382 113.36340332 C-71.29898941 105.23417025 -67.28460141 97.90256029 -62.89682007 90.90246582 C-60.73076435 87.25468518 -59.11560975 83.41187514 -57.47494507 79.50793457 C-57.14494507 78.84793457 -56.81494507 78.18793457 -56.47494507 77.50793457 C-55.81494507 77.50793457 -55.15494507 77.50793457 -54.47494507 77.50793457 C-54.35248413 76.94719238 -54.23002319 76.3864502 -54.10385132 75.80871582 C-51.93364572 67.869268 -47.47275448 60.51078288 -43.57626343 53.3013916 C-40.0563258 46.77829621 -36.75271361 40.15565889 -33.47494507 33.50793457 C-32.81494507 33.50793457 -32.15494507 33.50793457 -31.47494507 33.50793457 C-31.36279663 32.96652832 -31.25064819 32.42512207 -31.13510132 31.86730957 C-30.33496544 29.00765236 -29.16256356 26.45049749 -27.91244507 23.75793457 C-27.45740601 22.77309082 -27.00236694 21.78824707 -26.53353882 20.77355957 C-26.18420288 20.02590332 -25.83486694 19.27824707 -25.47494507 18.50793457 C-24.81494507 18.50793457 -24.15494507 18.50793457 -23.47494507 18.50793457 C-23.36408569 17.77703613 -23.25322632 17.0461377 -23.13900757 16.29309082 C-22.44094236 13.3653232 -21.48486507 11.45901479 -19.84994507 8.94543457 C-19.38330444 8.20164551 -18.91666382 7.45785645 -18.43588257 6.69152832 C-13.06971139 0.71605085 -7.61593571 -0.07860761 0 0 Z M98.52505493 146.50793457 C98.52505493 147.16793457 98.52505493 147.82793457 98.52505493 148.50793457 C97.86505493 148.50793457 97.20505493 148.50793457 96.52505493 148.50793457 C96.25950806 149.32777832 95.99396118 150.14762207 95.72036743 150.99230957 C95.36716431 152.06996582 95.01396118 153.14762207 94.65005493 154.25793457 C94.30200806 155.32527832 93.95396118 156.39262207 93.59536743 157.49230957 C91.23056674 164.15517866 91.23056674 164.15517866 88.52505493 165.50793457 C87.42102989 167.90713373 87.42102989 167.90713373 86.46255493 170.75793457 C85.95015259 172.18879395 85.95015259 172.18879395 85.42739868 173.64855957 C84.60251969 176.26246182 84.00233184 178.81156605 83.52505493 181.50793457 C82.86505493 181.50793457 82.20505493 181.50793457 81.52505493 181.50793457 C80.51324995 183.5646691 79.51604016 185.62858805 78.52505493 187.69543457 C77.96817993 188.84398926 77.41130493 189.99254395 76.83755493 191.17590332 C75.60741819 194.29883976 75.22700881 196.21079939 75.52505493 199.50793457 C74.86505493 199.50793457 74.20505493 199.50793457 73.52505493 199.50793457 C72.51520763 201.41943125 71.51750998 203.33735026 70.52505493 205.25793457 C69.96817993 206.32527832 69.41130493 207.39262207 68.83755493 208.49230957 C67.25900592 211.57106925 67.25900592 211.57106925 67.52505493 215.50793457 C66.86505493 215.50793457 66.20505493 215.50793457 65.52505493 215.50793457 C65.24532837 216.2117627 64.96560181 216.91559082 64.67739868 217.64074707 C61.76681152 224.80958877 58.48988148 231.64276192 54.88052368 238.47668457 C53.25291408 241.56310826 53.25291408 241.56310826 53.52505493 245.50793457 C52.86505493 245.50793457 52.20505493 245.50793457 51.52505493 245.50793457 C51.52505493 246.82793457 51.52505493 248.14793457 51.52505493 249.50793457 C50.86505493 249.50793457 50.20505493 249.50793457 49.52505493 249.50793457 C49.28271118 250.13699707 49.04036743 250.76605957 48.79067993 251.41418457 C46.94161529 256.1364112 44.98500818 260.71460582 42.67349243 265.22668457 C41.1586347 268.23578972 39.71114488 271.2729573 38.27505493 274.32043457 C37.75427368 275.42000488 37.23349243 276.5195752 36.69692993 277.65246582 C35.3352212 280.45606564 35.3352212 280.45606564 35.52505493 283.50793457 C34.86505493 283.50793457 34.20505493 283.50793457 33.52505493 283.50793457 C31.23460479 288.32003358 31.23460479 288.32003358 30.52505493 293.50793457 C29.86505493 293.50793457 29.20505493 293.50793457 28.52505493 293.50793457 C28.16153931 294.59461426 28.16153931 294.59461426 27.79067993 295.70324707 C24.71654332 304.57094883 24.71654332 304.57094883 22.27505493 307.94543457 C20.1490805 310.54129391 20.1490805 310.54129391 20.52505493 314.50793457 C19.86505493 314.50793457 19.20505493 314.50793457 18.52505493 314.50793457 C18.33942993 315.35484863 18.33942993 315.35484863 18.15005493 316.21887207 C17.48360497 318.65974506 16.57213777 320.83089216 15.52505493 323.13293457 C15.17442993 323.9089502 14.82380493 324.68496582 14.46255493 325.48449707 C13.83678356 326.83512027 13.19075349 328.17653746 12.52505493 329.50793457 C72.25505493 329.50793457 131.98505493 329.50793457 193.52505493 329.50793457 C192.53505493 327.03293457 192.53505493 327.03293457 191.52505493 324.50793457 C190.86505493 324.50793457 190.20505493 324.50793457 189.52505493 324.50793457 C189.41032837 323.78605957 189.29560181 323.06418457 189.17739868 322.32043457 C188.49913307 319.39617563 187.48299027 317.15801948 186.08755493 314.50793457 C184.3702451 311.22710385 182.85284077 307.96635349 181.52505493 304.50793457 C180.86505493 304.50793457 180.20505493 304.50793457 179.52505493 304.50793457 C179.19505493 302.19793457 178.86505493 299.88793457 178.52505493 297.50793457 C177.86505493 297.50793457 177.20505493 297.50793457 176.52505493 297.50793457 C175.0727324 293.9294642 173.71278948 290.3273335 172.40005493 286.69543457 C171.87025024 285.2317041 171.87025024 285.2317041 171.32974243 283.73840332 C171.06419556 283.00234863 170.79864868 282.26629395 170.52505493 281.50793457 C169.86505493 281.50793457 169.20505493 281.50793457 168.52505493 281.50793457 C168.52505493 280.51793457 168.52505493 279.52793457 168.52505493 278.50793457 C167.86505493 278.50793457 167.20505493 278.50793457 166.52505493 278.50793457 C166.04397219 277.09191743 165.56527352 275.6750902 165.08755493 274.25793457 C164.82071899 273.46902832 164.55388306 272.68012207 164.27896118 271.86730957 C163.60550785 269.75971469 163.03354899 267.66039484 162.52505493 265.50793457 C161.86505493 265.50793457 161.20505493 265.50793457 160.52505493 265.50793457 C160.52505493 264.51793457 160.52505493 263.52793457 160.52505493 262.50793457 C159.86505493 262.50793457 159.20505493 262.50793457 158.52505493 262.50793457 C158.19505493 260.85793457 157.86505493 259.20793457 157.52505493 257.50793457 C156.86505493 257.50793457 156.20505493 257.50793457 155.52505493 257.50793457 C155.40130493 256.62105957 155.27755493 255.73418457 155.15005493 254.82043457 C154.58092757 251.80405955 153.75891057 249.30467403 152.52505493 246.50793457 C151.86505493 246.50793457 151.20505493 246.50793457 150.52505493 246.50793457 C150.17442993 245.27043457 149.82380493 244.03293457 149.46255493 242.75793457 C147.74970143 237.57878512 145.09589917 233.19942713 142.28677368 228.54699707 C140.1758463 224.90553032 138.47206963 221.17253961 136.78677368 217.32043457 C134.91829824 213.15541192 132.83471907 209.10418392 130.75942993 205.03918457 C129.52505493 202.50793457 129.52505493 202.50793457 128.52505493 199.50793457 C127.86505493 199.50793457 127.20505493 199.50793457 126.52505493 199.50793457 C126.39743774 198.92527832 126.26982056 198.34262207 126.13833618 197.74230957 C125.53708659 195.55176966 124.75599974 193.76999547 123.71255493 191.75793457 C123.35548462 191.06184082 122.99841431 190.36574707 122.63052368 189.64855957 C122.08331665 188.5889502 122.08331665 188.5889502 121.52505493 187.50793457 C120.52481831 185.51518516 119.53077695 183.51942384 118.53677368 181.52355957 C117.83928811 180.13397442 117.13300966 178.74877978 116.41958618 177.36730957 C116.06251587 176.67121582 115.70544556 175.97512207 115.33755493 175.25793457 C115.01400024 174.63402832 114.69044556 174.01012207 114.35708618 173.36730957 C113.49267493 171.43557363 112.9770794 169.57172306 112.52505493 167.50793457 C111.86505493 167.50793457 111.20505493 167.50793457 110.52505493 167.50793457 C110.40130493 166.93172363 110.27755493 166.3555127 110.15005493 165.76184082 C109.5102069 163.45438887 108.63477584 161.56287999 107.52505493 159.44543457 C106.30532018 157.10910441 105.3640367 155.02487987 104.52505493 152.50793457 C103.86505493 152.50793457 103.20505493 152.50793457 102.52505493 152.50793457 C102.52505493 151.18793457 102.52505493 149.86793457 102.52505493 148.50793457 C101.86505493 148.50793457 101.20505493 148.50793457 100.52505493 148.50793457 C100.52505493 147.84793457 100.52505493 147.18793457 100.52505493 146.50793457 C99.86505493 146.50793457 99.20505493 146.50793457 98.52505493 146.50793457 Z " fill="#D8F23E" transform="translate(263.4749450683594,354.4920654296875)"/>
<path d="M0 0 C1.15225571 -0.0033284 2.30451141 -0.0066568 3.49168396 -0.01008606 C5.91982628 -0.0151337 8.34797549 -0.01749506 10.77612305 -0.01733398 C14.48693215 -0.01952584 18.19744633 -0.03771948 21.90820312 -0.05664062 C24.2721344 -0.05957393 26.63606709 -0.06155915 29 -0.0625 C30.10638321 -0.06968552 31.21276642 -0.07687103 32.35267639 -0.08427429 C37.65759501 -0.06855133 41.95199637 0.15079793 46.93359375 2.16796875 C48.44107269 2.44250227 49.95799397 2.6707415 51.48046875 2.84375 C52.31650635 2.946875 53.15254395 3.05 54.01391602 3.15625 C54.89490967 3.26324219 55.77590332 3.37023437 56.68359375 3.48046875 C66.07849623 4.71571076 74.9095252 6.8702451 83.96777344 9.59667969 C86.82896176 10.42817257 89.72152443 11.10944745 92.62109375 11.79296875 C96.96466416 12.85353875 100.84093416 14.34900893 104.93359375 16.16796875 C106.51196231 16.64311776 108.09589197 17.10000493 109.68359375 17.54296875 C114.33818153 18.89202226 118.62302536 20.72007137 123 22.7890625 C125.36793718 23.90208757 127.7454996 24.957493 130.14453125 26 C135.21824057 28.24634687 140.10281556 30.80619575 144.99609375 33.41796875 C145.86169922 33.876875 146.72730469 34.33578125 147.61914062 34.80859375 C149.72539253 35.92572183 151.83016307 37.04554042 153.93359375 38.16796875 C153.93359375 38.82796875 153.93359375 39.48796875 153.93359375 40.16796875 C154.92359375 40.16796875 155.91359375 40.16796875 156.93359375 40.16796875 C156.93359375 40.82796875 156.93359375 41.48796875 156.93359375 42.16796875 C157.66578125 42.27109375 158.39796875 42.37421875 159.15234375 42.48046875 C162.21559519 43.23767697 163.90755962 44.29939556 166.43359375 46.16796875 C169.41874957 48.34596008 172.40493886 50.50274689 175.47265625 52.5625 C176.36500977 53.16481445 176.36500977 53.16481445 177.27539062 53.77929688 C178.45339703 54.57280612 179.63434873 55.36196234 180.81835938 56.14648438 C182.22567003 57.10332014 183.58495722 58.13006823 184.93359375 59.16796875 C184.93359375 59.82796875 184.93359375 60.48796875 184.93359375 61.16796875 C186.25359375 61.49796875 187.57359375 61.82796875 188.93359375 62.16796875 C188.93359375 62.82796875 188.93359375 63.48796875 188.93359375 64.16796875 C189.475 64.40515625 190.01640625 64.64234375 190.57421875 64.88671875 C193.56609512 66.51144632 196.04518774 68.51815645 198.68359375 70.66796875 C199.6684375 71.46203125 200.65328125 72.25609375 201.66796875 73.07421875 C202.415625 73.76515625 203.16328125 74.45609375 203.93359375 75.16796875 C203.93359375 75.82796875 203.93359375 76.48796875 203.93359375 77.16796875 C204.59359375 77.16796875 205.25359375 77.16796875 205.93359375 77.16796875 C210.70103561 81.47029433 210.70103561 81.47029433 211.93359375 85.16796875 C212.92359375 85.49796875 213.91359375 85.82796875 214.93359375 86.16796875 C214.93359375 86.82796875 214.93359375 87.48796875 214.93359375 88.16796875 C215.59359375 88.16796875 216.25359375 88.16796875 216.93359375 88.16796875 C218.30850674 89.67584036 219.60723837 91.25336636 220.87109375 92.85546875 C224.85956612 97.85073997 228.94240745 102.74247136 233.12670898 107.57495117 C240.93359375 116.69807125 240.93359375 116.69807125 240.93359375 120.16796875 C241.59359375 120.16796875 242.25359375 120.16796875 242.93359375 120.16796875 C244.44140625 122.28515625 244.44140625 122.28515625 246.05859375 125.04296875 C246.59742188 125.94789063 247.13625 126.8528125 247.69140625 127.78515625 C248.93359375 130.16796875 248.93359375 130.16796875 248.93359375 132.16796875 C249.59359375 132.16796875 250.25359375 132.16796875 250.93359375 132.16796875 C251.94128895 133.93443445 252.93951089 135.70630698 253.93359375 137.48046875 C254.76890625 138.95966797 254.76890625 138.95966797 255.62109375 140.46875 C256.93359375 143.16796875 256.93359375 143.16796875 256.93359375 146.16796875 C257.59359375 146.16796875 258.25359375 146.16796875 258.93359375 146.16796875 C259.1852832 146.70164062 259.43697266 147.2353125 259.69628906 147.78515625 C260.8577811 150.24653992 262.02067948 152.70725674 263.18359375 155.16796875 C263.77720703 156.42673828 263.77720703 156.42673828 264.3828125 157.7109375 C266.55180023 162.2978132 268.75800937 166.85764304 271.07299805 171.37280273 C272.30174578 173.93591823 273.26186103 176.57588325 274.21875 179.25 C274.87329443 181.00618204 275.64819736 182.71627657 276.43359375 184.41796875 C278.26187376 188.58185255 279.19414009 192.95941773 280.2421875 197.37109375 C280.91909984 200.27931282 280.91909984 200.27931282 282.05859375 203.48046875 C282.93359375 206.16796875 282.93359375 206.16796875 283.43359375 209.85546875 C283.71357369 213.2975984 283.71357369 213.2975984 285.93359375 216.16796875 C286.3125 218.17578125 286.3125 218.17578125 286.49609375 220.29296875 C286.50046274 223.94260841 286.50046274 223.94260841 287.93359375 225.16796875 C293.67916749 260.80848085 296.41328458 309.66329803 284.93359375 344.16796875 C284.60359375 344.49796875 284.27359375 344.82796875 283.93359375 345.16796875 C283.58150394 346.65917263 283.27733903 348.16179567 282.99609375 349.66796875 C282.0653356 354.52470678 281.02279172 359.34437775 279.93359375 364.16796875 C279.27359375 364.16796875 278.61359375 364.16796875 277.93359375 364.16796875 C278.01609375 364.99296875 278.09859375 365.81796875 278.18359375 366.66796875 C277.9072583 370.53666511 276.88869729 372.55488908 275.078125 375.89453125 C273.35122869 379.32474848 272.15745674 382.91778643 270.8828125 386.53515625 C269.70053661 389.81439061 268.34894079 392.98343792 266.93359375 396.16796875 C266.27359375 396.16796875 265.61359375 396.16796875 264.93359375 396.16796875 C264.87171875 396.95171875 264.80984375 397.73546875 264.74609375 398.54296875 C263.63036025 403.52085668 261.33053148 407.69250569 258.93359375 412.16796875 C258.27359375 412.16796875 257.61359375 412.16796875 256.93359375 412.16796875 C256.83046875 412.72355469 256.72734375 413.27914063 256.62109375 413.8515625 C255.791662 416.64618196 254.48160956 418.76331855 252.93359375 421.23046875 C251.24563028 423.92877573 249.94310014 426.13944959 248.93359375 429.16796875 C248.27359375 429.16796875 247.61359375 429.16796875 246.93359375 429.16796875 C246.64484375 429.91046875 246.35609375 430.65296875 246.05859375 431.41796875 C245.11056731 433.73536672 244.08513464 435.9471399 242.93359375 438.16796875 C242.27359375 438.16796875 241.61359375 438.16796875 240.93359375 438.16796875 C240.93359375 438.82796875 240.93359375 439.48796875 240.93359375 440.16796875 C240.27359375 440.16796875 239.61359375 440.16796875 238.93359375 440.16796875 C238.27359375 442.14796875 237.61359375 444.12796875 236.93359375 446.16796875 C236.27359375 446.16796875 235.61359375 446.16796875 234.93359375 446.16796875 C234.54494141 447.01875 234.54494141 447.01875 234.1484375 447.88671875 C232.8170687 450.38678107 231.25964979 452.45309407 229.49609375 454.66796875 C227.72425701 456.9028557 225.97228484 459.11272279 224.3359375 461.44921875 C223.64177734 462.3 223.64177734 462.3 222.93359375 463.16796875 C222.27359375 463.16796875 221.61359375 463.16796875 220.93359375 463.16796875 C220.66804688 463.74933594 220.4025 464.33070313 220.12890625 464.9296875 C216.85965476 471.05152117 211.41248336 475.79967387 206.18359375 480.2421875 C203.47076137 482.56410827 200.82687511 484.95472251 198.18359375 487.35546875 C197.28125 488.17402344 196.37890625 488.99257813 195.44921875 489.8359375 C193.85482033 491.31397454 192.28801803 492.82283333 190.76171875 494.37109375 C188.66830754 496.42872016 186.47266211 497.70800444 183.93359375 499.16796875 C182.85078125 500.00328125 182.85078125 500.00328125 181.74609375 500.85546875 C179.93359375 502.16796875 179.93359375 502.16796875 177.93359375 502.16796875 C177.93359375 502.82796875 177.93359375 503.48796875 177.93359375 504.16796875 C176.03515625 505.67578125 176.03515625 505.67578125 173.55859375 507.29296875 C172.74648438 507.83179688 171.934375 508.370625 171.09765625 508.92578125 C168.93359375 510.16796875 168.93359375 510.16796875 166.93359375 510.16796875 C166.93359375 510.82796875 166.93359375 511.48796875 166.93359375 512.16796875 C162.64982965 514.73822721 158.76107365 516.7550478 153.93359375 518.16796875 C153.93359375 518.82796875 153.93359375 519.48796875 153.93359375 520.16796875 C152.50064877 521.00911046 151.0620497 521.84062562 149.62109375 522.66796875 C148.82058594 523.13203125 148.02007813 523.59609375 147.1953125 524.07421875 C144.93359375 525.16796875 144.93359375 525.16796875 141.93359375 525.16796875 C141.93359375 525.82796875 141.93359375 526.48796875 141.93359375 527.16796875 C139.62359375 527.49796875 137.31359375 527.82796875 134.93359375 528.16796875 C134.93359375 528.82796875 134.93359375 529.48796875 134.93359375 530.16796875 C127.75933028 533.26923538 120.59055179 536.35960773 113.3125 539.2109375 C111.41559349 539.97406081 109.53956514 540.78902102 107.671875 541.62109375 C103.72350525 543.3197678 99.68620381 544.547171 95.55859375 545.73046875 C94.81416016 545.94735352 94.06972656 546.16423828 93.30273438 546.38769531 C89.36816981 547.51995647 85.43913999 548.56147735 81.43359375 549.41796875 C78.12496636 549.79551238 78.12496636 549.79551238 76.93359375 551.16796875 C74.18481034 551.72012612 71.4491293 552.21532008 68.68359375 552.66796875 C67.87180664 552.80323975 67.06001953 552.93851074 66.22363281 553.07788086 C60.40073074 554.01489299 54.62673374 554.60199835 48.73046875 554.859375 C45.93232299 555.03670107 45.93232299 555.03670107 43.5090332 556.1706543 C38.31627495 557.61909523 33.29589855 557.45311899 27.9296875 557.43359375 C26.77364517 557.4355072 25.61760284 557.43742065 24.42652893 557.43939209 C21.98820782 557.44075027 19.54987939 557.43707949 17.11157227 557.42871094 C13.38085704 557.41799679 9.65062227 557.42862399 5.91992188 557.44140625 C3.54817602 557.44008478 1.17643047 557.43752265 -1.1953125 557.43359375 C-2.86733482 557.43966644 -2.86733482 557.43966644 -4.57313538 557.44586182 C-5.61449142 557.4395575 -6.65584747 557.43325317 -7.72875977 557.42675781 C-8.64109879 557.42516663 -9.55343781 557.42357544 -10.49342346 557.42193604 C-13.33505427 557.14145174 -15.44720496 556.2743725 -18.06640625 555.16796875 C-20.88965387 554.76424714 -23.66846752 554.43152107 -26.50390625 554.16796875 C-28.1043524 554.00572815 -29.70461233 553.84164073 -31.3046875 553.67578125 C-32.49892334 553.55251465 -32.49892334 553.55251465 -33.71728516 553.42675781 C-39.18695107 552.8241964 -44.62609047 551.99013866 -50.06640625 551.16796875 C-50.06640625 550.50796875 -50.06640625 549.84796875 -50.06640625 549.16796875 C-51.03578125 549.22984375 -52.00515625 549.29171875 -53.00390625 549.35546875 C-56.89611728 549.35546875 -60.04618418 548.33968356 -63.6796875 547.01953125 C-66.12008957 546.14881496 -68.57313191 545.43399732 -71.06640625 544.73046875 C-75.13681609 543.52442139 -78.91671069 542.00818237 -82.75390625 540.19921875 C-85.11218796 539.11026795 -85.11218796 539.11026795 -87.81640625 538.19921875 C-88.72390625 537.87953125 -89.63140625 537.55984375 -90.56640625 537.23046875 C-91.40171875 536.95332031 -92.23703125 536.67617188 -93.09765625 536.390625 C-95.06640625 535.16796875 -95.06640625 535.16796875 -95.95703125 532.71875 C-96.11860129 528.95070585 -94.23665303 527.18220038 -92.06640625 524.16796875 C-82.27565455 503.45676322 -81.479067 477.16811706 -87.06640625 455.16796875 C-87.39640625 454.83796875 -87.72640625 454.50796875 -88.06640625 454.16796875 C-88.48772749 452.15229521 -88.87730706 450.12997472 -89.25390625 448.10546875 C-91.82100232 435.90246137 -96.35938914 424.99539038 -102.46875 414.1328125 C-104.34553403 410.64997856 -105.77908148 407.10764379 -107.1796875 403.4140625 C-108.26050795 400.67630145 -109.58030422 398.1145829 -110.93359375 395.50390625 C-112.98686032 391.26992897 -114.72005193 386.88814857 -116.50390625 382.53515625 C-117.9908491 379.10109484 -117.9908491 379.10109484 -120.20703125 375.98046875 C-122.39582923 372.6696819 -122.7530896 370.08442687 -123.06640625 366.16796875 C-123.72640625 366.16796875 -124.38640625 366.16796875 -125.06640625 366.16796875 C-128.15540826 360.50289864 -130.6430524 355.6593944 -131.06640625 349.16796875 C-131.72640625 349.16796875 -132.38640625 349.16796875 -133.06640625 349.16796875 C-133.34315186 348.57894775 -133.61989746 347.98992676 -133.9050293 347.38305664 C-135.18478573 344.66400701 -136.46931702 341.94723831 -137.75390625 339.23046875 C-138.18896484 338.30427734 -138.62402344 337.37808594 -139.07226562 336.42382812 C-141.54264218 331.20858873 -144.15993698 326.1390705 -147.00170898 321.11743164 C-148.28808253 318.76207902 -149.31247303 316.3673277 -150.25390625 313.85546875 C-151.14132881 311.51040743 -152.00719393 309.27995275 -153.1796875 307.0625 C-154.06640625 305.16796875 -154.06640625 305.16796875 -154.06640625 302.16796875 C-154.72640625 302.16796875 -155.38640625 302.16796875 -156.06640625 302.16796875 C-156.45828125 301.03359375 -156.85015625 299.89921875 -157.25390625 298.73046875 C-158.75320729 294.7015413 -160.73035619 291.11979221 -162.87109375 287.40234375 C-164.01119876 285.27116706 -164.87948554 283.19134673 -165.69140625 280.91796875 C-166.90336154 277.23047375 -166.90336154 277.23047375 -168.75390625 274.41796875 C-170.06640625 272.16796875 -170.06640625 272.16796875 -170.06640625 268.16796875 C-170.72640625 268.16796875 -171.38640625 268.16796875 -172.06640625 268.16796875 C-172.47503906 267.018125 -172.88367188 265.86828125 -173.3046875 264.68359375 C-175.24476568 259.50548973 -177.78084112 254.69383228 -180.36914062 249.81640625 C-182.20144928 246.26737056 -183.06640625 244.2397402 -183.06640625 240.16796875 C-183.72640625 240.16796875 -184.38640625 240.16796875 -185.06640625 240.16796875 C-188.15540826 234.50289864 -190.6430524 229.6593944 -191.06640625 223.16796875 C-191.72640625 223.16796875 -192.38640625 223.16796875 -193.06640625 223.16796875 C-193.56140625 220.69296875 -193.56140625 220.69296875 -194.06640625 218.16796875 C-194.72640625 218.16796875 -195.38640625 218.16796875 -196.06640625 218.16796875 C-196.57255923 216.89957349 -197.07109724 215.62813773 -197.56640625 214.35546875 C-197.84484375 213.64777344 -198.12328125 212.94007813 -198.41015625 212.2109375 C-199.06640625 210.16796875 -199.06640625 210.16796875 -199.06640625 207.16796875 C-199.72640625 207.16796875 -200.38640625 207.16796875 -201.06640625 207.16796875 C-201.43765625 206.17796875 -201.43765625 206.17796875 -201.81640625 205.16796875 C-202.78765528 202.83697108 -203.82684349 200.70380952 -205.00390625 198.48046875 C-207.3436202 193.89743357 -208.72665216 189.12099902 -210.06640625 184.16796875 C-210.72640625 184.16796875 -211.38640625 184.16796875 -212.06640625 184.16796875 C-212.30367432 183.62849609 -212.54094238 183.08902344 -212.78540039 182.53320312 C-215.28507832 176.87594127 -217.86274984 171.2604692 -220.50390625 165.66796875 C-221.05788086 164.48267578 -221.05788086 164.48267578 -221.62304688 163.2734375 C-223.91028252 158.4294133 -226.37925566 153.82965995 -229.23071289 149.29101562 C-230.32844661 146.50226528 -229.94575447 145.00167475 -229.06640625 142.16796875 C-228.14257812 140.34692383 -228.14257812 140.34692383 -227.03515625 138.6875 C-226.43767578 137.77774414 -226.43767578 137.77774414 -225.828125 136.84960938 C-225.20357422 135.92438477 -225.20357422 135.92438477 -224.56640625 134.98046875 C-221.63492287 130.68142503 -221.63492287 130.68142503 -219.06640625 126.16796875 C-218.40640625 126.16796875 -217.74640625 126.16796875 -217.06640625 126.16796875 C-216.99035156 125.62914062 -216.91429687 125.0903125 -216.8359375 124.53515625 C-215.76697358 121.24687131 -213.87133679 119.01686466 -211.75390625 116.29296875 C-209.34742833 113.18244688 -207.00165721 110.10623475 -204.8984375 106.78515625 C-204.29386719 105.92148437 -203.68929687 105.0578125 -203.06640625 104.16796875 C-202.40640625 104.16796875 -201.74640625 104.16796875 -201.06640625 104.16796875 C-201.06640625 103.50796875 -201.06640625 102.84796875 -201.06640625 102.16796875 C-200.40640625 102.16796875 -199.74640625 102.16796875 -199.06640625 102.16796875 C-198.70869141 101.35005859 -198.70869141 101.35005859 -198.34375 100.515625 C-196.74477273 97.57683192 -194.76285139 95.18091978 -192.62890625 92.60546875 C-191.45521484 91.18041016 -191.45521484 91.18041016 -190.2578125 89.7265625 C-186.73271689 85.61080916 -186.73271689 85.61080916 -185.06640625 84.16796875 C-184.40640625 84.16796875 -183.74640625 84.16796875 -183.06640625 84.16796875 C-183.06640625 83.50796875 -183.06640625 82.84796875 -183.06640625 82.16796875 C-182.40640625 82.16796875 -181.74640625 82.16796875 -181.06640625 82.16796875 C-180.79828125 81.52859375 -180.53015625 80.88921875 -180.25390625 80.23046875 C-179.06640625 78.16796875 -179.06640625 78.16796875 -176.06640625 77.16796875 C-176.06640625 76.50796875 -176.06640625 75.84796875 -176.06640625 75.16796875 C-174.60546875 73.66015625 -174.60546875 73.66015625 -172.69140625 72.04296875 C-172.06492187 71.50414062 -171.4384375 70.9653125 -170.79296875 70.41015625 C-169.06640625 69.16796875 -169.06640625 69.16796875 -167.06640625 69.16796875 C-167.06640625 68.50796875 -167.06640625 67.84796875 -167.06640625 67.16796875 C-165.53687749 65.79314423 -163.94117719 64.49130978 -162.31640625 63.23046875 C-161.4346875 62.54082031 -160.55296875 61.85117187 -159.64453125 61.140625 C-158.79375 60.48964844 -157.94296875 59.83867187 -157.06640625 59.16796875 C-156.339375 58.58917969 -155.61234375 58.01039063 -154.86328125 57.4140625 C-153.06640625 56.16796875 -153.06640625 56.16796875 -151.06640625 56.16796875 C-151.06640625 55.50796875 -151.06640625 54.84796875 -151.06640625 54.16796875 C-148.94140625 52.6171875 -148.94140625 52.6171875 -146.06640625 50.85546875 C-145.06609375 50.23929687 -144.06578125 49.623125 -143.03515625 48.98828125 C-142.05546875 48.38757813 -141.07578125 47.786875 -140.06640625 47.16796875 C-136.89147783 45.09645298 -136.89147783 45.09645298 -133.72265625 43.015625 C-132.06640625 42.16796875 -132.06640625 42.16796875 -129.06640625 42.16796875 C-129.06640625 41.50796875 -129.06640625 40.84796875 -129.06640625 40.16796875 C-122.1867405 35.47513833 -114.57490233 31.7477315 -107.06640625 28.16796875 C-106.09316406 27.69617188 -105.11992188 27.224375 -104.1171875 26.73828125 C-94.68620345 22.26059387 -85.0038209 18.46524666 -75.09375 15.18359375 C-72.84008031 14.42752392 -70.61399388 13.58824385 -68.40625 12.70703125 C-63.27822328 10.76616896 -57.98043149 9.68594448 -52.62890625 8.54296875 C-50.65033612 8.11654183 -48.67242811 7.68702691 -46.6953125 7.25390625 C-45.8297876 7.06876465 -44.9642627 6.88362305 -44.07250977 6.69287109 C-42.08276091 6.35268572 -42.08276091 6.35268572 -41.06640625 5.16796875 C-39.25829441 4.95900558 -37.44424593 4.80016514 -35.62890625 4.66796875 C-31.7020571 4.45377692 -31.7020571 4.45377692 -28.06640625 3.16796875 C-26.52616629 3.09846334 -24.98305637 3.08344518 -23.44140625 3.10546875 C-22.21550781 3.11900391 -22.21550781 3.11900391 -20.96484375 3.1328125 C-20.33835937 3.14441406 -19.711875 3.15601563 -19.06640625 3.16796875 C-19.06640625 2.50796875 -19.06640625 1.84796875 -19.06640625 1.16796875 C-12.70528426 0.03397305 -6.45019918 0.00649964 0 0 Z M-8.06640625 176.16796875 C-8.06640625 176.82796875 -8.06640625 177.48796875 -8.06640625 178.16796875 C-8.80890625 178.41546875 -9.55140625 178.66296875 -10.31640625 178.91796875 C-13.29663712 180.27261914 -14.96559877 181.67812285 -17.06640625 184.16796875 C-17.06640625 184.82796875 -17.06640625 185.48796875 -17.06640625 186.16796875 C-17.72640625 186.16796875 -18.38640625 186.16796875 -19.06640625 186.16796875 C-29.53223084 197.86009198 -32.75102173 213.14074622 -32.33984375 228.44921875 C-31.41602604 241.01313954 -27.35669701 250.49987468 -21.06640625 261.16796875 C-20.40640625 261.16796875 -19.74640625 261.16796875 -19.06640625 261.16796875 C-18.67775391 262.06322266 -18.67775391 262.06322266 -18.28125 262.9765625 C-16.97627481 265.33055312 -15.71166412 266.55082531 -13.62890625 268.23046875 C-8.86429806 272.11007412 -8.86429806 272.11007412 -7.06640625 274.16796875 C-7.25126834 277.40305535 -8.44188411 280.1293941 -9.62890625 283.10546875 C-10.9847907 286.57416343 -11.34802361 289.41307067 -11.06640625 293.16796875 C-11.72640625 293.16796875 -12.38640625 293.16796875 -13.06640625 293.16796875 C-13.26274658 293.89910889 -13.45908691 294.63024902 -13.66137695 295.38354492 C-14.55934726 298.70970292 -15.46899628 302.03255809 -16.37890625 305.35546875 C-16.68763672 306.50595703 -16.99636719 307.65644531 -17.31445312 308.84179688 C-17.62060547 309.95361328 -17.92675781 311.06542969 -18.2421875 312.2109375 C-18.51973877 313.2321167 -18.79729004 314.2532959 -19.08325195 315.30541992 C-20.08798101 318.23078575 -21.43387135 320.55281018 -23.06640625 323.16796875 C-23.94948299 326.00648202 -23.94948299 326.00648202 -24.56640625 328.98046875 C-25.38547568 332.48284376 -26.22311187 335.83072176 -27.56640625 339.16796875 C-29.25830296 343.40652249 -30.24423868 347.76956972 -31.3125 352.19921875 C-32.60515032 357.28944798 -34.22238652 362.22672338 -36.31640625 367.04296875 C-37.36058613 369.30866347 -37.36058613 369.30866347 -36.06640625 372.16796875 C4.85359375 372.16796875 45.77359375 372.16796875 87.93359375 372.16796875 C86.6383004 366.11126829 86.6383004 366.11126829 84.93359375 360.16796875 C84.27359375 360.16796875 83.61359375 360.16796875 82.93359375 360.16796875 C82.9078125 359.56210937 82.88203125 358.95625 82.85546875 358.33203125 C82.45841754 352.46650203 81.19690199 347.81991594 78.85546875 342.44140625 C77.75180348 339.71965546 77.24048963 337.08347965 76.93359375 334.16796875 C76.27359375 334.16796875 75.61359375 334.16796875 74.93359375 334.16796875 C75.01609375 333.38421875 75.09859375 332.60046875 75.18359375 331.79296875 C74.89289481 327.57783419 73.58734961 324.59231374 71.94140625 320.7421875 C71.01048652 318.36437316 70.42028208 316.16777699 69.93359375 313.66796875 C69.08361112 309.37252081 67.55926831 305.54458769 65.87890625 301.51171875 C63.62726033 295.92912557 62.36660066 290.00235402 60.93359375 284.16796875 C60.27359375 284.16796875 59.61359375 284.16796875 58.93359375 284.16796875 C58.95421875 283.28109375 58.97484375 282.39421875 58.99609375 281.48046875 C58.94073156 278.54627244 58.60302035 276.01303179 57.93359375 273.16796875 C58.6915625 272.66136719 58.6915625 272.66136719 59.46484375 272.14453125 C60.11453125 271.69851563 60.76421875 271.2525 61.43359375 270.79296875 C62.08328125 270.35210938 62.73296875 269.91125 63.40234375 269.45703125 C63.90765625 269.03164063 64.41296875 268.60625 64.93359375 268.16796875 C64.93359375 267.50796875 64.93359375 266.84796875 64.93359375 266.16796875 C65.59359375 266.16796875 66.25359375 266.16796875 66.93359375 266.16796875 C66.93359375 265.50796875 66.93359375 264.84796875 66.93359375 264.16796875 C67.59359375 264.16796875 68.25359375 264.16796875 68.93359375 264.16796875 C70.52370721 262.4892381 70.52370721 262.4892381 72.05859375 260.35546875 C72.86683594 259.29392578 72.86683594 259.29392578 73.69140625 258.2109375 C75.19335988 256.1392388 75.19335988 256.1392388 74.93359375 253.16796875 C75.59359375 253.16796875 76.25359375 253.16796875 76.93359375 253.16796875 C84.03382728 237.59518765 85.38587307 219.48869889 79.93359375 203.16796875 C76.63614302 195.85044256 72.344289 189.09651932 66.93359375 183.16796875 C66.27359375 183.16796875 65.61359375 183.16796875 64.93359375 183.16796875 C64.93359375 182.50796875 64.93359375 181.84796875 64.93359375 181.16796875 C63.2548631 179.57785529 63.2548631 179.57785529 61.12109375 178.04296875 C60.41339844 177.50414062 59.70570313 176.9653125 58.9765625 176.41015625 C56.9048638 174.90820262 56.9048638 174.90820262 53.93359375 175.16796875 C53.93359375 174.50796875 53.93359375 173.84796875 53.93359375 173.16796875 C51.8730952 172.35040637 49.81010522 171.53912141 47.74609375 170.73046875 C46.59753906 170.27800781 45.44898438 169.82554687 44.265625 169.359375 C27.36448464 163.3161771 6.79062585 166.57771523 -8.06640625 176.16796875 Z " fill="#D8F23E" transform="translate(811.06640625,335.83203125)"/>
<path d="M0 0 C0.33 0 0.66 0 1 0 C1 8.91 1 17.82 1 27 C0.67 27 0.34 27 0 27 C0 18.09 0 9.18 0 0 Z " fill="#AAE200" transform="translate(87,730)"/>
<path d="" fill="#000000" transform="translate(0,0)"/>
</svg>
